<svg width="3478" height="1059" viewBox="0 0 3478 1059" fill="none" xmlns="http://www.w3.org/2000/svg">
<g clip-path="url(#clip0_353_2)">
<mask id="mask0_353_2" style="mask-type:luminance" maskUnits="userSpaceOnUse" x="143" y="104" width="3192" height="851">
<path d="M3334.25 104H143V955H3334.25V104Z" fill="white"/>
</mask>
<g mask="url(#mask0_353_2)">
<path d="M1586.75 466.557C1603.18 478.254 1622.82 487.06 1645.58 492.89C1668.33 498.734 1693.27 501.636 1720.39 501.636C1733.17 501.636 1745.13 501.044 1756.31 499.883C1767.46 498.721 1778.08 497.002 1788.15 494.738C1798.23 492.475 1807.97 489.809 1817.38 486.679C1826.8 483.563 1836.13 480.08 1845.45 476.193V411.272C1838.09 415.408 1830.36 419.461 1822.24 423.395C1814.12 427.341 1805.12 430.886 1795.35 433.979C1785.57 437.06 1774.76 439.585 1763 441.457C1751.25 443.353 1738.04 444.278 1723.34 444.278C1708.24 444.278 1694.94 443.223 1683.37 441.066C1671.81 438.908 1661.74 435.981 1653.08 432.213C1644.42 428.42 1637.22 423.988 1631.42 418.821C1625.61 413.642 1620.91 407.977 1617.28 401.816C1613.66 395.642 1611.06 389.11 1609.55 382.179C1608.04 375.245 1607.24 368.218 1607.24 361.095C1607.24 350.345 1609.06 339.929 1612.66 329.915C1616.26 319.9 1622.5 311.012 1631.43 303.262C1640.35 295.511 1652.24 289.266 1667.14 284.596C1682.02 279.927 1700.79 277.604 1723.35 277.604C1738.05 277.604 1751.28 278.6 1763.02 280.614C1774.75 282.641 1785.55 285.224 1795.36 288.365C1805.18 291.506 1814.13 295.096 1822.25 299.043C1830.39 303.001 1838.11 306.971 1845.46 310.989V246.116C1836.17 242.241 1826.84 238.733 1817.39 235.651C1807.94 232.558 1798.23 229.844 1788.16 227.581C1778.09 225.341 1767.48 223.611 1756.32 222.449C1745.15 221.288 1733.18 220.684 1720.4 220.684C1693.32 220.684 1668.39 223.611 1645.59 229.43C1622.8 235.284 1603.2 244.03 1586.76 255.763C1570.31 267.507 1557.48 282.131 1548.34 299.683C1539.19 317.222 1534.61 337.712 1534.61 361.155C1534.61 384.583 1539.2 405.086 1548.34 422.637C1557.47 440.2 1570.29 454.848 1586.75 466.557Z" fill="black"/>
<path d="M2489.75 492.676C2512.01 486.668 2530.92 477.756 2546.56 465.94C2562.17 454.136 2574.17 439.476 2582.56 421.949C2590.96 404.398 2595.13 384.144 2595.13 361.237C2595.13 338.315 2590.94 318.064 2582.56 300.511C2574.17 282.96 2562.15 268.277 2546.56 256.52C2530.96 244.74 2512.01 235.816 2489.75 229.784C2467.48 223.752 2442.48 220.766 2414.74 220.766C2386.97 220.766 2361.91 223.788 2339.53 229.784C2317.17 235.793 2298.09 244.705 2282.37 256.52C2266.65 268.324 2254.49 282.972 2245.96 300.511C2237.44 318.064 2233.18 338.315 2233.18 361.237C2233.18 384.144 2237.44 404.41 2245.96 421.949C2254.5 439.489 2266.61 454.183 2282.37 465.94C2298.11 477.72 2317.17 486.632 2339.53 492.676C2361.91 498.708 2387.02 501.682 2414.74 501.682C2442.44 501.682 2467.48 498.673 2489.75 492.676ZM2348.21 431.655C2340.19 427.709 2333.51 423.062 2328.09 417.765C2322.66 412.457 2318.34 406.721 2315.11 400.557C2311.87 394.383 2309.6 387.948 2308.24 381.216C2306.87 374.485 2306.19 367.826 2306.19 361.188C2306.19 354.706 2306.87 348.106 2308.24 341.445C2309.6 334.773 2311.87 328.35 2315.11 322.21C2318.34 316.072 2322.66 310.312 2328.09 304.944C2333.51 299.563 2340.21 294.846 2348.21 290.841C2356.19 286.835 2365.68 283.683 2376.63 281.431C2387.61 279.179 2400.31 278.006 2414.76 278.006C2436.29 278.006 2454.03 280.459 2467.97 285.413C2481.92 290.343 2492.92 296.743 2500.97 304.647C2509.03 312.528 2514.65 321.463 2517.84 331.371C2521.01 341.279 2522.58 351.246 2522.58 361.188C2522.58 371.132 2521.01 381.11 2517.84 391.031C2514.65 400.936 2509.03 409.825 2500.97 417.754C2492.92 425.681 2481.92 432.07 2467.97 436.976C2454.03 441.882 2436.29 444.384 2414.76 444.384C2400.29 444.384 2387.61 443.246 2376.63 440.959C2365.68 438.672 2356.19 435.589 2348.21 431.655Z" fill="black"/>
<path d="M3321.54 300.511C3313.16 282.96 3301.11 268.277 3285.54 256.508C3269.92 244.729 3250.99 235.816 3228.72 229.784C3206.46 223.752 3181.46 220.766 3153.7 220.766C3125.96 220.766 3100.9 223.776 3078.54 229.784C3056.18 235.781 3037.07 244.705 3021.35 256.508C3005.63 268.312 2993.48 282.972 2984.95 300.511C2976.44 318.051 2972.16 338.305 2972.16 361.224C2972.16 384.144 2976.44 404.398 2984.95 421.949C2993.5 439.501 3005.6 454.183 3021.35 465.953C3037.11 477.72 3056.18 486.645 3078.54 492.676C3100.9 498.708 3126 501.695 3153.7 501.695C3181.4 501.695 3206.46 498.673 3228.72 492.676C3250.99 486.668 3269.9 477.756 3285.54 465.953C3301.16 454.136 3313.16 439.489 3321.54 421.949C3329.92 404.398 3334.11 384.157 3334.11 361.224C3334.11 338.305 3329.92 318.038 3321.54 300.511ZM3256.8 391.031C3253.63 400.936 3247.99 409.825 3239.95 417.754C3231.89 425.681 3220.89 432.07 3206.95 436.989C3192.99 441.895 3175.25 444.395 3153.72 444.395C3139.25 444.395 3126.57 443.256 3115.62 440.969C3104.64 438.682 3095.15 435.602 3087.17 431.642C3079.17 427.696 3072.47 423.052 3067.05 417.754C3061.64 412.457 3057.3 406.708 3054.09 400.547C3050.86 394.383 3048.56 387.948 3047.2 381.216C3045.84 374.498 3045.15 367.826 3045.15 361.188C3045.15 354.729 3045.84 348.117 3047.2 341.458C3048.54 334.784 3050.84 328.35 3054.09 322.21C3057.3 316.072 3061.64 310.3 3067.05 304.944C3072.47 299.563 3079.17 294.87 3087.17 290.841C3095.17 286.835 3104.64 283.683 3115.62 281.431C3126.57 279.168 3139.3 278.018 3153.72 278.018C3175.25 278.018 3192.99 280.459 3206.95 285.401C3220.89 290.331 3231.89 296.731 3239.95 304.636C3247.99 312.54 3253.63 321.453 3256.8 331.361C3259.97 341.279 3261.54 351.234 3261.54 361.177C3261.54 371.132 3259.97 381.11 3256.8 391.031Z" fill="black"/>
<path d="M2063.93 740.476V556.262H1992.51V823.244H2070.3L2226.35 639.836V823.244H2298.16V556.262H2220.16L2063.93 740.476Z" fill="black"/>
<path d="M2598.3 705.961C2592.36 700.449 2584.7 695.579 2575.28 691.407C2565.85 687.224 2554.51 683.61 2541.22 680.636C2552.73 677.908 2562.53 674.519 2570.66 670.515C2578.79 666.496 2585.4 661.886 2590.6 656.72C2595.79 651.553 2599.57 645.887 2601.91 639.7C2604.32 633.539 2605.51 627.044 2605.51 620.17C2605.51 607.337 2601.76 596.433 2594.25 587.438C2586.79 578.456 2576.62 571.118 2563.79 565.491C2550.92 559.849 2535.96 555.736 2518.9 553.154C2501.81 550.569 2483.65 549.277 2464.41 549.277C2444.8 549.277 2425.01 550.664 2404.99 553.437C2384.97 556.234 2366.21 560.536 2348.68 566.378V630.114C2356.55 626.108 2365.12 622.6 2374.42 619.649C2383.67 616.687 2393.31 614.138 2403.25 612.054C2413.18 609.966 2423.33 608.439 2433.73 607.384C2444.14 606.318 2454.35 605.82 2464.41 605.82C2475.11 605.82 2484.28 606.222 2491.9 606.982C2499.5 607.752 2505.9 608.805 2511.07 610.098C2516.22 611.39 2520.26 612.883 2523.24 614.577C2526.22 616.26 2528.47 618.025 2530.03 619.815C2531.56 621.604 2532.58 623.37 2533.03 625.065C2533.49 626.748 2533.71 628.301 2533.71 629.735C2533.71 634.262 2531.94 638.09 2528.41 641.194C2524.86 644.311 2518.75 646.836 2510.09 648.791C2501.43 650.746 2489.96 652.17 2475.54 653.07C2461.16 653.959 2443.07 654.431 2421.25 654.431V707.289C2445.27 707.419 2465.12 708.153 2480.86 709.504C2496.62 710.867 2509.07 712.929 2518.32 715.644C2527.58 718.356 2534 721.805 2537.68 725.953C2541.34 730.089 2543.19 734.995 2543.19 740.708C2543.19 744.086 2542.41 747.641 2540.79 751.386C2539.17 755.13 2535.66 758.685 2530.26 761.957C2524.83 765.251 2516.9 768.001 2506.43 770.123C2495.96 772.254 2482.01 773.333 2464.46 773.333C2454.78 773.333 2444.5 772.705 2433.67 771.484C2422.82 770.252 2412.1 768.427 2401.42 766.057C2390.76 763.674 2380.46 760.783 2370.44 757.406C2360.44 754.028 2351.46 750.201 2343.46 745.935V809.871C2350.7 812.324 2358.46 814.753 2366.89 817.17C2375.27 819.589 2384.44 821.757 2394.46 823.676C2404.46 825.597 2415.4 827.184 2427.25 828.452C2439.1 829.71 2452.16 830.301 2466.35 830.301C2487.54 830.301 2507.2 828.584 2525.39 825.159C2543.58 821.744 2559.36 816.542 2572.72 809.609C2586.11 802.677 2596.53 793.955 2604.06 783.479C2611.59 773.014 2615.4 760.736 2615.4 746.765C2615.32 738.646 2613.98 731.238 2611.25 724.447C2608.57 717.622 2604.23 711.459 2598.3 705.961Z" fill="black"/>
<path d="M2888.74 660.492H2729.39V556.262H2657.61V823.231H2729.39V718.99H2888.74V823.231H2960.52V556.262H2888.74V660.492Z" fill="black"/>
<path d="M3081.81 740.476V556.262H3010.39V823.244H3088.19L3244.25 639.836V823.244H3316.05V556.262H3238.05L3081.81 740.476Z" fill="black"/>
<path d="M1894.99 660.492L1946.77 556.262H1874.59L1822.81 660.492H1787.47V556.262H1715.28V660.492H1679.66L1627.87 556.262H1555.68L1607.47 660.492H1576.13C1569.9 716.382 1558.86 770.79 1543.17 823.218H1617.99C1627.88 789.278 1635.62 754.436 1641.57 718.99H1715.26V823.218H1787.45V718.99H1860.84C1866.8 754.436 1874.53 789.278 1884.41 823.218H1959.25C1943.57 770.79 1932.51 716.382 1926.28 660.492H1894.99Z" fill="black"/>
<path d="M1995.72 284.933H2119.26V493.511H2190.94V226.578L1924.18 226.59V345.469C1924.18 385.596 1921.74 420.212 1890.38 426.482V498.311C1935.97 495.253 1995.72 463.717 1995.72 356.559V284.933Z" fill="black"/>
<path d="M2860.72 493.5C2869.99 492.728 2878.76 491.343 2886.95 489.315C2895.14 487.29 2902.63 484.575 2909.39 481.15C2916.18 477.725 2921.99 473.257 2926.8 467.759C2931.63 462.247 2935.43 455.682 2938.14 448.027C2940.84 440.359 2942.18 431.388 2942.18 421.029V415.946C2942.18 405.6 2940.84 396.628 2938.14 388.961C2935.43 381.293 2931.63 374.728 2926.8 369.228C2921.99 363.718 2916.18 359.238 2909.39 355.825C2906.07 354.155 2902.56 352.649 2898.88 351.311C2902.33 348.892 2905.58 346.226 2908.37 343.013C2912.82 337.954 2916.31 331.887 2918.82 324.751C2921.33 317.605 2922.58 309.191 2922.58 299.474V295.575C2922.58 295.468 2922.6 295.397 2922.6 295.278C2922.6 285.56 2921.35 277.146 2918.84 270.012C2916.33 262.877 2912.84 256.81 2908.39 251.738C2903.97 246.677 2898.71 242.624 2892.71 239.507C2886.69 236.391 2880.25 233.973 2873.27 232.207C2866.27 230.441 2858.95 229.256 2851.27 228.628C2843.61 228 2835.95 227.668 2828.36 227.668H2638.9V494.649H2831.87C2841.8 494.659 2851.44 494.257 2860.72 493.5ZM2710.68 281.306H2816.53C2823.78 281.306 2829.7 282.017 2834.33 283.439C2838.99 284.861 2842.67 286.757 2845.38 289.068C2848.08 291.391 2849.97 294.081 2850.99 297.139C2852.01 300.197 2852.55 303.361 2852.55 306.762C2852.55 310.139 2852.01 313.316 2850.99 316.373C2849.97 319.43 2848.08 322.038 2845.38 324.23C2842.67 326.423 2838.99 328.176 2834.33 329.48C2829.7 330.761 2823.78 331.425 2816.53 331.425H2710.68V281.306ZM2710.64 441.01V384.47H2814.4C2824.06 384.47 2832.4 384.812 2839.38 385.429C2846.33 386.057 2852.01 387.421 2856.42 389.412C2860.82 391.401 2864.01 394.258 2866.1 397.967C2868.16 401.69 2869.2 406.56 2869.2 412.627C2869.2 418.695 2868.16 423.637 2866.1 427.311C2864.01 430.996 2860.82 433.877 2856.42 435.962C2852.01 438.049 2846.33 439.41 2839.38 440.051C2832.4 440.678 2824.06 441 2814.4 441L2710.64 441.01Z" fill="black"/>
</g>
</g>
<g clip-path="url(#clip1_353_2)">
<mask id="mask1_353_2" style="mask-type:luminance" maskUnits="userSpaceOnUse" x="143" y="104" width="3192" height="851">
<path d="M3334.25 104H143V955H3334.25V104Z" fill="white"/>
</mask>
<g mask="url(#mask1_353_2)">
<path d="M376.121 612.118C299.838 629.681 219.282 629.681 143 612.142V687.728C181.354 695.348 220.38 699.922 259.513 699.922C304.288 699.922 349.099 694.838 392.718 684.86C468.599 667.367 549.921 667.367 625.802 684.847V609.321C543.806 592.967 457.36 593.464 376.121 612.118Z" fill="#FFBA0D"/>
<path d="M376.121 241.943C299.838 259.506 219.282 259.506 143 241.967V317.552C181.354 325.172 220.38 329.746 259.513 329.746C304.288 329.746 349.099 324.664 392.718 314.685C468.846 297.193 549.661 297.193 625.802 314.673V239.134C543.642 222.709 457.596 223.23 376.121 241.943Z" fill="#FFBA0D"/>
<path d="M376.121 488.701C299.838 506.263 219.282 506.263 143 488.724V564.31C181.354 571.931 220.38 576.505 259.513 576.505C304.288 576.505 349.099 571.42 392.718 561.442C468.599 543.95 549.921 543.95 625.802 561.429V485.903C543.806 469.549 457.36 470.057 376.121 488.701Z" fill="#FFBA0D"/>
<path d="M384.407 439.523V363.961C381.68 364.542 378.859 364.742 376.131 365.369C299.838 382.934 219.294 382.934 143 365.382V440.981C181.354 448.589 220.392 453.176 259.513 453.176C301.479 453.176 343.386 448.316 384.407 439.523Z" fill="#FFBA0D"/>
<path d="M376.085 735.493C300.204 752.985 218.893 752.985 143 735.505V811.042C181.224 818.676 220.215 823.261 259.513 823.261C304.501 823.261 349.3 818.178 392.717 808.198C468.599 790.708 549.923 790.708 625.802 808.187V732.648C543.819 716.305 457.408 716.779 376.085 735.493Z" fill="#FFBA0D"/>
<path d="M376.085 858.915C300.204 876.408 218.893 876.408 143 858.926V934.465C181.224 942.096 220.215 946.683 259.513 946.683C304.501 946.683 349.3 941.599 392.717 931.621C468.599 914.128 549.923 914.128 625.802 931.61V856.071C543.819 839.717 457.408 840.189 376.085 858.915Z" fill="#FFBA0D"/>
<path d="M376.085 118.599C300.204 136.091 218.893 136.091 143 118.61V194.149C181.224 201.781 220.215 206.367 259.513 206.367C304.501 206.367 349.3 201.283 392.683 191.34C468.965 173.765 549.521 173.765 625.802 191.317V115.743C543.606 99.4237 457.834 99.874 376.085 118.599Z" fill="#FFBA0D"/>
<path d="M1021.64 365.369C1018.92 364.742 1016.09 364.552 1013.36 363.961V439.523C1054.36 448.304 1096.28 453.176 1138.24 453.176C1177.39 453.176 1216.41 448.599 1254.75 440.981V365.395C1178.47 382.921 1097.92 382.921 1021.64 365.369Z" fill="#FFBA0D"/>
<path d="M1021.67 118.599C939.92 99.874 854.145 99.4237 771.949 115.743V191.317C848.233 173.765 928.789 173.765 1005.07 191.34C1048.44 201.283 1093.25 206.367 1138.24 206.367C1177.54 206.367 1216.54 201.781 1254.75 194.149V118.61C1178.86 136.091 1097.55 136.091 1021.67 118.599Z" fill="#FFBA0D"/>
<path d="M1021.63 241.952C940.143 223.227 854.098 222.706 771.949 239.143V314.682C848.09 297.201 928.906 297.201 1005.03 314.693C1048.65 324.684 1093.46 329.756 1138.24 329.756C1177.38 329.756 1216.41 325.182 1254.75 317.562V241.975C1178.47 259.515 1097.91 259.515 1021.63 241.952Z" fill="#FFBA0D"/>
<path d="M1021.67 735.497C940.332 716.771 853.935 716.309 771.949 732.653V808.192C847.831 790.71 929.154 790.71 1005.03 808.202C1048.44 818.193 1093.25 823.265 1138.24 823.265C1177.54 823.265 1216.54 818.678 1254.75 811.047V735.508C1178.86 753 1097.55 753 1021.67 735.497Z" fill="#FFBA0D"/>
<path d="M771.949 856.03V931.569C847.831 914.089 929.154 914.089 1005.03 931.569C1007.76 932.196 1010.6 932.398 1013.36 932.992V857.44C934.441 840.529 851.184 840.233 771.949 856.03Z" fill="#FFBA0D"/>
<path d="M1021.63 612.114C940.379 593.473 853.945 592.962 771.949 609.316V684.845C847.831 667.363 929.154 667.363 1005.03 684.855C1048.65 694.846 1093.46 699.918 1138.24 699.918C1177.38 699.918 1216.41 695.344 1254.75 687.723V612.137C1178.47 629.666 1097.91 629.666 1021.63 612.114Z" fill="#FFBA0D"/>
<path d="M1021.63 488.701C940.379 470.057 853.945 469.549 771.949 485.903V561.429C847.831 543.95 929.154 543.95 1005.03 561.442C1048.65 571.433 1093.46 576.505 1138.24 576.505C1177.38 576.505 1216.41 571.931 1254.75 564.31V488.724C1178.47 506.263 1097.91 506.263 1021.63 488.701Z" fill="#FFBA0D"/>
</g>
</g>
<defs>
<clipPath id="clip0_353_2">
<rect width="1999" height="851" fill="white" transform="translate(1335 104)"/>
</clipPath>
<clipPath id="clip1_353_2">
<rect width="3191.25" height="851" fill="white" transform="translate(143 104)"/>
</clipPath>
</defs>
</svg>
